<svg width="1440" height="900" viewBox="0 0 1440 900" fill="none" xmlns="http://www.w3.org/2000/svg">
<g clip-path="url(#clip0_1369_6243)">
<rect width="1440" height="900" transform="matrix(1 0 0 -1 0 900)" fill="#212338"/>
<g filter="url(#filter0_f_1369_6243)">
<path d="M249.2 636.372C334.105 814.561 506.484 907.925 728.71 960.19C1000.73 1024.17 1688.14 1124.66 1819.81 892.338C1910.45 732.398 1688.87 623.743 1505.32 598.85C991.871 529.217 673.574 218.45 426.447 259.322C251.101 288.322 167.14 464.156 249.2 636.372Z" fill="url(#paint0_linear_1369_6243)"/>
</g>
<g filter="url(#filter1_f_1369_6243)">
<circle r="255" transform="matrix(1 0 0 -1 879 341)" fill="#FF29A8"/>
</g>
<g filter="url(#filter2_f_1369_6243)">
<circle r="398.5" transform="matrix(1 0 0 -1 644.5 -127.5)" fill="#FF4473"/>
</g>
<g filter="url(#filter3_f_1369_6243)">
<ellipse rx="632.5" ry="449.5" transform="matrix(1 0 0 -1 1440.5 177.5)" fill="#FF3D00"/>
</g>
<g filter="url(#filter4_f_1369_6243)">
<ellipse rx="574.5" ry="408" transform="matrix(1 0 0 -1 1498.5 30)" fill="#FFBB00"/>
</g>
<g filter="url(#filter5_f_1369_6243)">
<ellipse rx="547.53" ry="216.86" transform="matrix(0.960363 0.278751 0.278751 -0.960363 1158.42 980.2)" fill="#4C1D95"/>
</g>
</g>
<defs>
<filter id="filter0_f_1369_6243" x="-82.4525" y="-44.3672" width="2223.23" height="1382.07" filterUnits="userSpaceOnUse" color-interpolation-filters="sRGB">
<feFlood flood-opacity="0" result="BackgroundImageFix"/>
<feBlend mode="normal" in="SourceGraphic" in2="BackgroundImageFix" result="shape"/>
<feGaussianBlur stdDeviation="150" result="effect1_foregroundBlur_1369_6243"/>
</filter>
<filter id="filter1_f_1369_6243" x="374" y="-164" width="1010" height="1010" filterUnits="userSpaceOnUse" color-interpolation-filters="sRGB">
<feFlood flood-opacity="0" result="BackgroundImageFix"/>
<feBlend mode="normal" in="SourceGraphic" in2="BackgroundImageFix" result="shape"/>
<feGaussianBlur stdDeviation="125" result="effect1_foregroundBlur_1369_6243"/>
</filter>
<filter id="filter2_f_1369_6243" x="-54" y="-826" width="1397" height="1397" filterUnits="userSpaceOnUse" color-interpolation-filters="sRGB">
<feFlood flood-opacity="0" result="BackgroundImageFix"/>
<feBlend mode="normal" in="SourceGraphic" in2="BackgroundImageFix" result="shape"/>
<feGaussianBlur stdDeviation="150" result="effect1_foregroundBlur_1369_6243"/>
</filter>
<filter id="filter3_f_1369_6243" x="458" y="-622" width="1965" height="1599" filterUnits="userSpaceOnUse" color-interpolation-filters="sRGB">
<feFlood flood-opacity="0" result="BackgroundImageFix"/>
<feBlend mode="normal" in="SourceGraphic" in2="BackgroundImageFix" result="shape"/>
<feGaussianBlur stdDeviation="175" result="effect1_foregroundBlur_1369_6243"/>
</filter>
<filter id="filter4_f_1369_6243" x="624" y="-678" width="1749" height="1416" filterUnits="userSpaceOnUse" color-interpolation-filters="sRGB">
<feFlood flood-opacity="0" result="BackgroundImageFix"/>
<feBlend mode="normal" in="SourceGraphic" in2="BackgroundImageFix" result="shape"/>
<feGaussianBlur stdDeviation="150" result="effect1_foregroundBlur_1369_6243"/>
</filter>
<filter id="filter5_f_1369_6243" x="329.075" y="421.98" width="1658.68" height="1116.44" filterUnits="userSpaceOnUse" color-interpolation-filters="sRGB">
<feFlood flood-opacity="0" result="BackgroundImageFix"/>
<feBlend mode="normal" in="SourceGraphic" in2="BackgroundImageFix" result="shape"/>
<feGaussianBlur stdDeviation="150" result="effect1_foregroundBlur_1369_6243"/>
</filter>
<linearGradient id="paint0_linear_1369_6243" x1="358.126" y1="534.077" x2="1475.32" y2="544.469" gradientUnits="userSpaceOnUse">
<stop offset="0.422952" stop-color="#8900C9"/>
<stop offset="1" stop-color="#FFCCFF"/>
</linearGradient>
<clipPath id="clip0_1369_6243">
<rect width="1440" height="900" fill="white" transform="matrix(1 0 0 -1 0 900)"/>
</clipPath>
</defs>
</svg>
