<svg width="600" height="450" viewBox="0 0 600 450" fill="none" xmlns="http://www.w3.org/2000/svg">
<path d="M176.236 292.049C76.986 293.705 41.2327 396.254 33.7245 318.456C26.4675 243.264 118.318 70.6075 193.353 61.881C259.654 54.1703 241.19 111.142 316.271 138.035C391.354 164.929 442.454 79.143 492.542 126.575C532.741 164.641 483.355 193.999 534.148 305.244C558.353 358.257 456.323 422.267 376.238 407.539C261.563 386.45 275.485 290.393 176.236 292.049Z" fill="#FF855F" fill-opacity="0.47"/>
<path fill-rule="evenodd" clip-rule="evenodd" d="M335.93 395.187C305.811 381.473 287.954 361.166 271.265 342.188C247.685 315.374 226.438 291.212 176.236 292.049C128.684 292.843 95.7075 316.796 73.4302 332.979C49.2105 350.572 37.6365 358.979 33.7252 318.456C26.469 243.264 118.319 70.6074 193.355 61.8809C228.88 57.7494 240.068 72.1883 254.352 90.6203C260.538 98.6033 267.305 107.336 276.882 115.634C206.971 122.106 137.191 148.033 152.422 206.202C165.634 256.655 201.836 270.668 234.748 283.409C238.846 284.995 242.892 286.562 246.836 288.176C280.967 302.145 314.144 315.724 326.276 365.215C329.007 376.352 332.272 386.306 335.93 395.187Z" fill="black" fill-opacity="0.08"/>
<path fill-rule="evenodd" clip-rule="evenodd" d="M360.452 45.7097L363.069 48.1492L358.935 48.8512L326.994 114.903L378.085 160.577L375.89 164.385L275.471 181.84L227.113 129.692L260.002 62.4642L360.351 45.7294L360.452 45.7097Z" fill="#7920B9"/>
<path fill-rule="evenodd" clip-rule="evenodd" d="M360.452 45.7097L363.069 48.1492L358.935 48.8512L326.994 114.903L378.085 160.577L375.89 164.385L275.471 181.84L227.113 129.692L260.002 62.4642L360.351 45.7294L360.452 45.7097Z" fill="black" fill-opacity="0.31"/>
<path d="M377.848 160.713L331.677 111.457L231.226 128.209L277.396 177.464L377.848 160.713Z" fill="#7920B9"/>
<path d="M363.082 48.1262L331.677 111.458L231.226 128.209L262.631 64.8779L363.082 48.1262Z" fill="#FFB401"/>
<path d="M356.674 52.0178L328.322 109.194L237.634 124.317L265.986 67.1414L356.674 52.0178Z" fill="white" fill-opacity="0.58"/>
<path fill-rule="evenodd" clip-rule="evenodd" d="M332.486 125.913L335.266 125.445L332.605 123.012L329.825 123.48L332.486 125.913ZM322.243 127.82L327.801 126.884L324.267 124.416L318.708 125.352L322.243 127.82ZM311.45 129.706L317.009 128.77L313.15 126.288L307.592 127.223L311.45 129.706ZM300.333 131.577L305.891 130.641L302.032 128.159L296.474 129.095L300.333 131.577ZM288.675 133.427L294.234 132.491L290.915 130.031L285.357 130.967L288.675 133.427ZM277.342 135.29L282.9 134.354L279.798 131.903L274.24 132.839L277.342 135.29ZM266.549 137.175L272.107 136.239L268.681 133.775L263.122 134.711L266.549 137.175ZM257.432 138.89L260.211 138.422L257.564 135.647L254.785 136.115C250.568 136.824 254.283 139.42 257.432 138.89Z" fill="#373248"/>
<path fill-rule="evenodd" clip-rule="evenodd" d="M339.473 132.659L342.252 132.191L339.59 129.758L336.812 130.226L339.473 132.659ZM329.228 134.566L334.787 133.63L331.253 131.162L325.694 132.098L329.228 134.566ZM318.436 136.451L323.994 135.515L320.135 133.034L314.577 133.969L318.436 136.451ZM307.319 138.323L312.878 137.387L309.019 134.905L303.46 135.841L307.319 138.323ZM295.661 140.173L301.22 139.237L297.902 136.777L292.343 137.713L295.661 140.173ZM284.327 142.035L289.886 141.1L286.784 138.649L281.225 139.584L284.327 142.035ZM273.535 143.921L279.093 142.985L275.667 140.52L270.108 141.456L273.535 143.921ZM264.418 145.635L267.197 145.167L264.55 142.392L261.77 142.86C257.554 143.57 261.269 146.165 264.418 145.635Z" fill="#373248"/>
<path fill-rule="evenodd" clip-rule="evenodd" d="M346.46 139.404L349.239 138.936L346.578 136.503L343.799 136.971L346.46 139.404ZM336.216 141.311L341.774 140.375L338.24 137.906L332.681 138.842L336.216 141.311ZM325.423 143.196L330.982 142.26L327.123 139.778L321.564 140.714L325.423 143.196ZM314.306 145.068L319.865 144.132L316.006 141.65L310.447 142.586L314.306 145.068ZM302.648 146.917L308.206 145.981L304.889 143.522L299.33 144.457L302.648 146.917ZM291.315 148.78L296.873 147.844L293.771 145.393L288.213 146.329L291.315 148.78ZM280.522 150.665L286.081 149.73L282.654 147.265L277.096 148.201L280.522 150.665ZM271.405 152.38L274.184 151.912L271.537 149.137L268.758 149.605C264.542 150.315 268.256 152.911 271.405 152.38Z" fill="#373248"/>
<path fill-rule="evenodd" clip-rule="evenodd" d="M353.446 146.149L356.224 145.681L353.563 143.248L350.785 143.716L353.446 146.149ZM343.201 148.057L348.76 147.121L345.226 144.652L339.667 145.588L343.201 148.057ZM332.409 149.941L337.967 149.005L334.108 146.524L328.55 147.46L332.409 149.941ZM321.292 151.813L326.85 150.877L322.991 148.395L317.433 149.331L321.292 151.813ZM309.634 153.663L315.193 152.727L311.875 150.267L306.316 151.203L309.634 153.663ZM298.3 155.526L303.859 154.59L300.757 152.139L295.198 153.075L298.3 155.526ZM287.508 157.411L293.066 156.475L289.64 154.011L284.081 154.946L287.508 157.411ZM278.391 159.126L281.17 158.658L278.523 155.882L275.743 156.35C271.527 157.06 275.242 159.655 278.391 159.126Z" fill="#373248"/>
<path fill-rule="evenodd" clip-rule="evenodd" d="M332.486 126.847L335.266 126.379L332.605 123.946L329.825 124.414L332.486 126.847ZM322.243 128.754L327.801 127.819L324.267 125.35L318.708 126.286L322.243 128.754ZM311.45 130.639L317.009 129.703L313.15 127.222L307.592 128.158L311.45 130.639ZM300.333 132.511L305.891 131.575L302.032 129.093L296.474 130.029L300.333 132.511ZM288.675 134.361L294.234 133.425L290.915 130.965L285.357 131.901L288.675 134.361ZM277.342 136.224L282.9 135.288L279.798 132.837L274.24 133.773L277.342 136.224ZM266.549 138.109L272.107 137.173L268.681 134.708L263.122 135.644L266.549 138.109ZM257.432 139.823L260.211 139.356L257.564 136.58L254.785 137.048C250.568 137.758 254.283 140.353 257.432 139.823Z" fill="#FFB401"/>
<path fill-rule="evenodd" clip-rule="evenodd" d="M339.473 133.592L342.252 133.124L339.59 130.691L336.812 131.159L339.473 133.592ZM329.228 135.5L334.787 134.564L331.253 132.095L325.694 133.031L329.228 135.5ZM318.436 137.385L323.994 136.449L320.135 133.967L314.577 134.903L318.436 137.385ZM307.319 139.256L312.878 138.32L309.019 135.839L303.46 136.775L307.319 139.256ZM295.661 141.107L301.22 140.171L297.902 137.711L292.343 138.647L295.661 141.107ZM284.327 142.97L289.886 142.034L286.784 139.583L281.225 140.518L284.327 142.97ZM273.535 144.854L279.093 143.918L275.667 141.454L270.108 142.39L273.535 144.854ZM264.418 146.569L267.197 146.101L264.55 143.326L261.77 143.794C257.554 144.503 261.269 147.099 264.418 146.569Z" fill="#FFB401"/>
<path fill-rule="evenodd" clip-rule="evenodd" d="M346.46 140.338L349.239 139.87L346.578 137.437L343.799 137.905L346.46 140.338ZM336.216 142.245L341.774 141.309L338.24 138.841L332.681 139.776L336.216 142.245ZM325.423 144.13L330.982 143.194L327.123 140.712L321.564 141.648L325.423 144.13ZM314.306 146.002L319.865 145.066L316.006 142.584L310.447 143.52L314.306 146.002ZM302.648 147.851L308.206 146.915L304.889 144.456L299.33 145.391L302.648 147.851ZM291.315 149.714L296.873 148.778L293.771 146.327L288.213 147.263L291.315 149.714ZM280.522 151.599L286.081 150.664L282.654 148.199L277.096 149.135L280.522 151.599ZM271.405 153.314L274.184 152.846L271.537 150.071L268.758 150.539C264.542 151.249 268.256 153.845 271.405 153.314Z" fill="#FFB401"/>
<path fill-rule="evenodd" clip-rule="evenodd" d="M353.446 147.083L356.224 146.615L353.563 144.182L350.785 144.65L353.446 147.083ZM343.201 148.991L348.76 148.055L345.226 145.586L339.667 146.522L343.201 148.991ZM332.409 150.875L337.967 149.939L334.108 147.458L328.55 148.394L332.409 150.875ZM321.292 152.747L326.85 151.811L322.991 149.33L317.433 150.265L321.292 152.747ZM309.634 154.597L315.193 153.661L311.875 151.201L306.316 152.137L309.634 154.597ZM298.3 156.46L303.859 155.524L300.757 153.073L295.198 154.009L298.3 156.46ZM287.508 158.345L293.066 157.409L289.64 154.945L284.081 155.88L287.508 158.345ZM278.391 160.06L281.17 159.592L278.523 156.816L275.743 157.284C271.527 157.994 275.242 160.59 278.391 160.06Z" fill="#FFB401"/>
<path fill-rule="evenodd" clip-rule="evenodd" d="M258.969 72.2604L264.79 71.3416C270.183 70.4902 268.114 80.355 258.335 81.5235C257.199 81.6592 255.75 81.867 254.075 82.1287L258.969 72.2604ZM250.557 89.2252L256.469 88.2922C261.862 87.441 259.793 97.3057 250.014 98.4742C248.858 98.6122 247.376 98.8252 245.663 99.0937L250.557 89.2252ZM242.144 106.189L248.148 105.242C253.541 104.39 251.472 114.256 241.693 115.423C240.516 115.564 239.003 115.783 237.251 116.058L242.144 106.189Z" fill="#040404" fill-opacity="0.33"/>
<path fill-rule="evenodd" clip-rule="evenodd" d="M338.341 98.0175L302.619 104.446L304.904 98.814L340.939 92.7795L338.341 98.0175ZM344.272 86.0572L307.432 92.6865L309.717 87.0555L346.861 80.835L344.272 86.0572ZM349.699 75.1132C338.344 77.2057 327.013 79.4475 327.013 79.4475C316.792 81.0615 321.55 70.2008 328.387 69.1216L354.733 64.9629L349.699 75.1132Z" fill="black" fill-opacity="0.14"/>
<path d="M381.478 64.6344L333.588 72.1943C326.752 73.2734 321.993 84.1335 332.213 82.5203C332.213 82.5203 365.245 75.9848 375.024 74.8164C384.803 73.6481 386.872 63.7831 381.478 64.6344Z" fill="#FF855F" fill-opacity="0.47"/>
<path d="M272.757 73.8527L224.866 81.4125C218.03 82.4918 213.272 93.3518 223.492 91.7385C223.492 91.7385 256.523 85.203 266.303 84.0345C276.081 82.8668 278.151 73.0013 272.757 73.8527Z" fill="#FFB401"/>
<path d="M264.437 90.8025L216.546 98.3625C209.71 99.4417 204.951 110.302 215.171 108.688C215.171 108.688 248.203 102.153 257.982 100.984C267.761 99.8167 269.83 89.9512 264.437 90.8025Z" fill="#FFB401"/>
<path d="M256.115 107.753L208.224 115.313C201.388 116.392 196.629 127.252 206.85 125.639C206.85 125.639 239.881 119.103 249.66 117.935C259.439 116.766 261.508 106.901 256.115 107.753Z" fill="#FFB401"/>
<path d="M358.237 82.8735L314.918 90.1275L312.632 95.7593L355.443 88.0553L358.237 82.8735Z" fill="#FF855F" fill-opacity="0.47"/>
<path d="M353.424 94.632L310.104 101.887L307.819 107.518L350.63 99.8138L353.424 94.632Z" fill="#FF855F" fill-opacity="0.47"/>
<path opacity="0.9" d="M297.45 37.128L342.032 29.6543L323.609 70.3257L279.722 78.06L297.45 37.128Z" fill="white" fill-opacity="0.54"/>
<path d="M330.377 38.7641L302.477 43.4556L300.93 47.0804L328.787 42.1446L330.377 38.7641Z" fill="black" fill-opacity="0.1"/>
<path d="M326.948 46.385L299.204 51.0217L297.736 54.628L325.357 49.6611L326.948 46.385Z" fill="black" fill-opacity="0.1"/>
<path d="M323.803 53.1854L296.332 57.8008L294.772 61.4545L322.295 56.473L323.803 53.1854Z" fill="black" fill-opacity="0.1"/>
<path d="M320.379 60.759L292.996 65.4215L291.374 68.9506L318.808 64.185L320.379 60.759Z" fill="black" fill-opacity="0.1"/>
<path d="M331.964 41.1031L304.066 45.7946L302.518 49.4195L330.375 44.4836L331.964 41.1031Z" fill="#7920B9"/>
<path d="M328.535 48.724L300.792 53.3607L299.324 56.9671L326.945 52.0002L328.535 48.724Z" fill="#7920B9"/>
<path d="M325.391 55.5245L297.92 60.1398L296.36 63.7934L323.883 58.812L325.391 55.5245Z" fill="#7920B9"/>
<path d="M321.967 63.098L294.584 67.7605L292.961 71.2895L320.395 66.524L321.967 63.098Z" fill="#7920B9"/>
<path d="M237.686 98.0227C237.829 97.8735 238.067 97.869 238.216 98.0122C238.366 98.1562 238.37 98.3932 238.227 98.5425L237.686 98.0227ZM235.547 100.79L235.343 101.104L234.962 100.858L235.277 100.53L235.547 100.79ZM237.886 101.86C238.06 101.974 238.11 102.205 237.997 102.379C237.884 102.553 237.652 102.603 237.478 102.49L237.886 101.86ZM238.227 98.5425L235.818 101.05L235.277 100.53L237.686 98.0227L238.227 98.5425ZM235.751 100.475L237.886 101.86L237.478 102.49L235.343 101.104L235.751 100.475Z" fill="#E8ECFA"/>
<path d="M244.581 97.4235C244.451 97.263 244.215 97.2383 244.054 97.368C243.893 97.4985 243.868 97.7348 243.998 97.896L244.581 97.4235ZM245.842 99.5768L246.065 99.879L246.38 99.6458L246.134 99.3405L245.842 99.5768ZM243.614 100.751C243.447 100.874 243.412 101.108 243.535 101.276C243.657 101.442 243.892 101.478 244.059 101.355L243.614 100.751ZM243.998 97.896L245.55 99.813L246.134 99.3405L244.581 97.4235L243.998 97.896ZM245.62 99.2745L243.614 100.751L244.059 101.355L246.065 99.879L245.62 99.2745Z" fill="#E8ECFA"/>
<path d="M137.721 38.7332L165.938 45.4462L164.756 50.412L136.54 43.6989L137.721 38.7332Z" fill="#7920B9"/>
<path d="M62.2855 30.1077L163.838 54.2684L162.657 59.2342L61.1041 35.0735L62.2855 30.1077Z" fill="#7920B9"/>
<path d="M60.187 38.9301L161.739 63.0906L160.558 68.0563L59.0056 43.8958L60.187 38.9301Z" fill="#7920B9"/>
<path d="M129.325 74.0222L157.541 80.7352L156.36 85.701L128.143 78.9879L129.325 74.0222Z" fill="#7920B9"/>
<path d="M100.144 76.4007L155.442 89.5568L154.261 94.5225L98.9629 81.3665L100.144 76.4007Z" fill="#7920B9"/>
<path d="M123.027 100.488L151.244 107.201L150.062 112.167L121.846 105.454L123.027 100.488Z" fill="#7920B9"/>
<path d="M93.8462 102.868L149.143 116.023L147.961 120.989L92.6648 107.833L93.8462 102.868Z" fill="#7920B9"/>
<path d="M116.729 126.955L144.945 133.668L143.764 138.634L115.547 131.921L116.729 126.955Z" fill="#7920B9"/>
<path d="M41.2981 118.33L142.846 142.49L141.664 147.455L40.1167 123.296L41.2981 118.33Z" fill="#7920B9"/>
<path d="M39.1981 127.152L140.745 151.312L139.564 156.278L38.0167 132.118L39.1981 127.152Z" fill="#7920B9"/>
<path d="M511.162 35.5112L540.016 32.5673L540.534 37.6453L511.68 40.5892L511.162 35.5112Z" fill="#7920B9"/>
<path d="M443.325 51.5481L540.937 41.5889L541.455 46.6669L443.843 56.6261L443.325 51.5481Z" fill="#7920B9"/>
<path d="M444.245 60.5697L541.857 50.6105L542.375 55.6885L444.763 65.6477L444.245 60.5697Z" fill="#7920B9"/>
<path d="M514.842 71.5979L543.697 68.6539L544.215 73.7319L515.36 76.6759L514.842 71.5979Z" fill="#7920B9"/>
<path d="M476.951 84.5799L544.617 77.676L545.135 82.754L477.469 89.6579L476.951 84.5799Z" fill="#7920B9"/>
<path d="M517.603 98.6627L546.457 95.7188L546.975 100.797L518.121 103.741L517.603 98.6627Z" fill="#7920B9"/>
<path d="M479.712 111.644L547.377 104.74L547.895 109.818L480.23 116.722L479.712 111.644Z" fill="#7920B9"/>
<path d="M520.363 125.728L549.217 122.784L549.736 127.862L520.881 130.806L520.363 125.728Z" fill="#7920B9"/>
<path fill-rule="evenodd" clip-rule="evenodd" d="M204.746 265.961C218.305 267.775 230.927 270.207 238.301 271.867L242.342 256.297C234.381 254.505 221.123 251.956 206.884 250.05C192.785 248.164 159.91 244.357 147.292 245.23L149.538 261.283C159.928 260.564 191.047 264.127 204.746 265.961Z" fill="#A28C55"/>
<path fill-rule="evenodd" clip-rule="evenodd" d="M218.243 326.77C228.482 323.9 238.267 321.85 244.067 320.854L241.599 306.49C235.338 307.566 225.062 309.723 214.31 312.737C203.663 315.721 179.042 323.178 170.391 327.996L177.482 340.729C184.607 336.761 207.899 329.67 218.243 326.77Z" fill="#C57C38"/>
<path fill-rule="evenodd" clip-rule="evenodd" d="M404.36 207.686C394.979 199.325 386.015 188.908 383.963 178.016C381.919 167.168 380.225 154.981 375.539 144.798C374.026 141.509 372.952 139.734 370.232 137.191C367.197 134.351 362.434 134.51 359.594 137.546C354.439 143.057 359.587 141.452 361.877 146.429C364.686 147.805 366.628 153.009 367.68 156.474C369.783 163.394 370.585 180.352 371.423 184.799C374.332 200.239 383.671 209.411 394.343 218.924C405.003 228.425 417.304 235.286 426.259 237.718C430.27 238.808 434.406 236.439 435.496 232.428C436.585 228.416 434.217 224.281 430.205 223.191C424.044 221.517 413.753 216.059 404.36 207.686Z" fill="#C57C38"/>
<path fill-rule="evenodd" clip-rule="evenodd" d="M410.753 237.306C420.339 244.929 434.853 228.663 434.853 228.663C434.853 228.663 426.604 219.884 412.391 210.98C412.391 210.98 405.43 220.439 402.329 226.676C401.083 229.182 408.138 235.226 410.753 237.306Z" fill="#FFB401"/>
<path fill-rule="evenodd" clip-rule="evenodd" d="M431.761 273.501C422.72 303.496 417.038 323.694 390.201 350.951C389.414 351.751 387.924 353.105 387 353.539C375.616 363.988 361.757 371.167 347.441 370.222C327.689 368.919 311.135 355.155 296.875 343.3C287.781 335.74 279.621 328.955 272.161 326.674C256.834 321.988 222.207 335.936 206.809 343.496C189.295 330.4 187.733 299.36 200.493 283.411C208.202 273.776 203.42 263.998 199.244 255.461C196.507 249.868 194.032 244.807 195.502 240.667C227.345 240.842 270.132 243.557 297.734 261.278C297.731 261.274 297.73 261.272 297.73 261.272C297.73 261.272 297.739 261.279 297.758 261.293C300.52 263.068 303.13 264.994 305.562 267.082C320.359 277.666 352.142 298.438 365.62 292.078C366.914 291.467 368.483 290.456 370.216 289.339C375.458 285.961 386.467 284.441 391.594 287.323C384.854 282.477 387.157 278.149 389.479 274.953C391.012 272.841 389.578 264.584 389.117 261.146C385.026 230.62 424.936 216.951 424.936 216.951C424.936 216.951 425.56 221.909 436.929 222.487C438.594 222.572 440.246 221.65 442.144 220.59C444.566 219.237 447.39 217.66 451.156 217.666C441.827 240.104 436.43 258.01 431.761 273.501Z" fill="#7920B9"/>
<path fill-rule="evenodd" clip-rule="evenodd" d="M389.57 351.696C416.381 324.465 422.707 303.538 431.735 273.589C431.743 273.56 431.752 273.53 431.761 273.501C436.271 258.536 441.461 241.319 450.218 219.938C448.094 219.593 446.367 219.274 445.237 218.992C444.121 219.486 443.101 220.055 442.144 220.59L389.57 351.696ZM442.139 220.593C439.845 222.869 438.44 225.513 436.848 228.506C435.453 231.131 433.915 234.024 431.51 237.174C423.635 247.492 421.024 249.177 418.696 250.68C416.759 251.93 415.019 253.054 410.609 258.91C413.813 263.08 409.502 271.639 406.427 277.745C405.227 280.126 404.216 282.133 403.91 283.363C392.063 331.04 359.828 345.814 331.297 324.223C295.44 297.087 236.293 275.326 203.96 276.862C203.939 276.935 203.918 277.009 203.896 277.082C203.268 279.189 202.18 281.304 200.493 283.411C200.444 283.474 200.394 283.536 200.345 283.599C198.813 285.544 197.492 287.71 196.383 290.035C195.398 292.102 194.58 294.298 193.934 296.578C189.448 312.396 193.159 332.342 205.747 342.664C209.455 341.123 213.465 339.554 217.607 338.066C218.007 337.923 218.408 337.78 218.81 337.638C220.933 336.889 223.085 336.164 225.244 335.478C225.396 335.419 225.549 335.359 225.702 335.301C241.964 329.038 261.623 323.453 272.161 326.675C279.621 328.955 287.781 335.74 296.875 343.301C296.94 343.355 297.005 343.409 297.071 343.463C301.313 346.989 306.188 350.994 311.461 354.915C322.177 362.755 334.077 369.341 347.442 370.223C361.757 371.167 375.616 363.988 387 353.539C387.924 353.105 388.783 352.496 389.57 351.696" fill="black" fill-opacity="0.21"/>
<path d="M279.905 134.942C283.295 127.671 287.795 128.513 287.795 128.513L298.901 130.603C298.901 130.603 306.02 137.369 317.911 149.328C316.692 151.222 315.687 154.852 310.59 158.335C309.312 159.208 302.125 163.952 289.385 151.034C274.852 149.616 275.012 145.438 279.905 134.942Z" fill="#A28C55"/>
<path d="M340.501 125.506C343.083 119.965 346.513 120.607 346.513 120.607L354.976 122.199C354.976 122.199 363.726 126.534 372.106 138.995C371.178 140.438 367.767 140.678 363.883 143.332C362.909 143.997 359.468 143.723 349.759 133.88C338.685 132.799 336.773 133.504 340.501 125.506Z" fill="#C57C38"/>
<path d="M351.217 145.93C354.201 147.944 360.861 147.121 363.818 146.457L363.556 139.078L354.421 133.69C354.205 135.297 353.381 138.602 351.821 138.962C349.873 139.412 347.269 138.179 345.313 139.3C343.357 140.421 347.486 143.412 351.217 145.93Z" fill="#C57C38"/>
<path d="M171.251 327.966L181.336 338.125C184.206 340.391 184.104 337.148 186.192 338.298C188.281 339.448 181.631 349.343 178.511 352.872C175.391 356.401 168.281 348.122 162.14 341.774C156.001 335.427 141.96 330.55 139.112 328.466C136.262 326.383 130.604 319.53 130.259 316.595C129.914 313.659 135.203 311.177 139.757 315.107C143.399 318.251 161.096 323.33 171.251 327.966Z" fill="#FF855F" fill-opacity="0.47"/>
<path d="M175.92 325.395C174.274 326.217 173.798 330.092 173.765 331.928L171.693 333.606L156.772 331.552C156.037 328.883 155.357 323.833 158.511 324.989C161.664 326.145 171.249 323.074 175.647 321.393C176.424 322.385 177.567 324.573 175.92 325.395Z" fill="#FF855F" fill-opacity="0.47"/>
<path d="M173.492 352.26C175.256 353.27 179.084 351.407 180.778 350.349C180.916 352.37 180.313 352.588 176.278 356.837C172.242 361.086 161.918 350.844 160.414 348.21C158.909 345.576 149.66 336.85 145.267 337.15C140.873 337.451 128.727 323.801 128.187 319.777C127.755 316.558 130.563 314.276 131.996 313.708C127.414 324.174 152.992 335.21 156.691 336.369C160.39 337.529 171.287 350.998 173.492 352.26Z" fill="#7920B9"/>
<path d="M163.37 318.522L163.37 318.522C164.058 318.555 164.509 319.131 164.378 319.807L162.843 327.713C162.711 328.39 162.047 328.911 161.359 328.877L161.359 328.877C160.671 328.843 160.219 328.267 160.351 327.591L161.886 319.685C162.017 319.009 162.682 318.488 163.37 318.522Z" fill="#7920B9"/>
<path d="M155.933 316.059L155.933 316.059C156.621 316.092 157.073 316.668 156.941 317.344L155.406 325.25C155.274 325.927 154.61 326.448 153.922 326.414L153.922 326.414C153.234 326.38 152.782 325.804 152.914 325.128L154.449 317.222C154.58 316.546 155.245 316.025 155.933 316.059Z" fill="#7920B9"/>
<path d="M148.311 246.23L155.366 259.726C157.571 262.933 158.487 259.605 160.247 261.43C162.008 263.256 152.137 271.222 147.857 273.826C143.576 276.431 138.953 265.78 134.709 257.398C130.465 249.016 116.816 238.356 114.575 235.342C112.335 232.329 109.654 224.872 110.227 221.779C110.799 218.687 116.955 217.829 120.347 223.255C123.061 227.596 139.448 238.324 148.311 246.23Z" fill="#FF855F" fill-opacity="0.47"/>
<path d="M153.866 245.087C151.935 245.404 150.232 249.193 149.622 251.048L146.987 252.102L132.469 245.321C132.562 242.378 133.459 237.031 136.3 239.198C139.141 241.364 149.848 241.258 154.847 240.933C155.325 242.185 155.798 244.769 153.866 245.087Z" fill="#FF855F" fill-opacity="0.47"/>
<path d="M142.949 271.626C144.425 273.207 148.901 272.518 150.955 271.976C150.459 274.073 149.778 274.105 144.34 277.154C138.902 280.203 131.631 266.546 130.93 263.396C130.23 260.246 123.574 248.468 119.014 247.391C114.454 246.315 106.403 228.623 107.12 224.363C107.694 220.955 111.266 219.52 112.901 219.392C104.952 228.589 127.476 247.849 130.871 250.191C134.266 252.533 141.105 269.65 142.949 271.626Z" fill="#7920B9"/>
<path d="M141.4 234.869C141.746 234.223 142.585 233.903 143.274 234.153C143.963 234.404 144.241 235.131 143.894 235.777L139.847 243.329C139.501 243.976 138.662 244.296 137.973 244.045C137.284 243.794 137.007 243.067 137.353 242.421L141.4 234.869Z" fill="#7920B9"/>
<path d="M134.615 230.026C134.961 229.38 135.8 229.06 136.489 229.311C137.178 229.561 137.455 230.289 137.109 230.935L133.062 238.487C132.716 239.133 131.877 239.453 131.188 239.202C130.499 238.952 130.221 238.225 130.568 237.579L134.615 230.026Z" fill="#7920B9"/>
<path d="M380.117 281.476C376.969 275.498 364.535 262.729 359.082 269.885C353.628 277.042 371.521 277.5 380.117 281.476Z" stroke="#78D2EE" stroke-width="3"/>
<path d="M425.448 156.293L429.631 169.191C429.631 169.191 433.766 169.568 435.623 167.995C436.856 166.951 438.085 164.668 438.085 164.668C438.275 167.317 435.559 172.225 431.977 176.864C427.498 182.663 426.921 203.986 433.133 209.996C439.345 216.007 446.938 244.572 429.6 266.678C412.262 288.785 415.957 323.432 424.718 339.713C431.735 352.751 452.377 322.321 474.477 325.246C485.233 326.67 518.59 358.136 528.095 346.696C537.762 335.062 511.582 283.564 522.604 276.117C576.865 239.456 480.316 207.733 476.439 189.898C470.427 162.247 467.209 156.328 452.609 150.727C439.885 145.846 431.698 152.224 425.448 156.293Z" fill="#7920B9"/>
<path d="M427.256 161.866L429.631 169.191C429.631 169.191 433.766 169.568 435.623 167.995C436.856 166.951 438.086 164.668 438.086 164.668C438.275 167.317 435.56 172.225 431.977 176.864C427.499 182.663 426.921 203.986 433.133 209.996C435.353 212.143 437.747 217.167 439.119 223.747C431.561 222.834 424.845 223.957 424.845 223.957C424.845 223.957 424.223 204.827 427.349 194.845C422.453 193.482 416.827 191.151 415.37 187.44C414.243 184.573 415.809 179.061 419.147 173.085C418.439 172.054 418.067 170.964 418.646 170.132C419.153 169.404 420.752 168.467 422.672 167.542C424.058 165.605 425.596 163.69 427.256 161.866Z" fill="#A28C55"/>
<path fill-rule="evenodd" clip-rule="evenodd" d="M381.702 282.359C382.261 282.333 382.794 282.309 382.75 281.327C382.736 281.024 382.681 280.724 382.631 280.443C382.502 279.73 382.398 279.152 383.054 279.035C383.735 278.912 394.147 285.989 400.881 290.566C403.162 292.115 405.02 293.379 405.936 293.978C407.512 295.01 417.56 299.468 417.56 299.468L417.408 307.717H417.263C412.3 305.67 406.653 303.341 402.241 300.751C396.18 297.191 380.213 284.562 380.539 283.094C380.692 282.404 381.207 282.38 381.702 282.359Z" fill="#FFB401"/>
<path fill-rule="evenodd" clip-rule="evenodd" d="M379.715 219.524C360.036 208.448 341.087 184.164 329.749 164.463C324.533 155.398 316.132 144.32 303.124 142.347L300.559 159.26C305.114 159.951 312.453 160.825 317.396 169.414C333.655 197.665 346.767 225.981 376.636 242.792C394.619 252.913 408.486 256.844 420.848 257.088C425.57 257.181 429.474 253.427 429.567 248.704C429.66 243.982 426.938 237.382 422.215 237.289C413.934 237.127 396.631 229.045 379.715 219.524Z" fill="#A28C55"/>
<path d="M383.38 281.903C384.288 276.419 382.487 261.865 375.353 263.845C368.219 265.825 379.721 275.023 383.38 281.903Z" stroke="#78D2EE" stroke-width="3"/>
<path d="M372.555 288.562C376.237 283.128 383.247 283.032 385.131 283.755L384.875 285.34C381.907 286.303 376.297 286.281 374.565 289.604C372.133 294.269 366.67 302.9 364.453 303.02C362.797 303.109 361.75 301.547 361.101 300.41C362.293 300.892 367.952 295.353 372.555 288.562Z" fill="#FFB401"/>
<path d="M369.986 283.015C377.191 278.492 382.108 281.674 383.314 283.606L383.52 284.806C377.276 280.643 374.252 282.407 371.473 285.153C369.211 287.388 357.952 287.306 354.728 285.545C353.567 284.911 353.647 283.733 353.72 282.269C354.469 283.512 364.958 286.171 369.986 283.015Z" fill="#FFB401"/>
<path fill-rule="evenodd" clip-rule="evenodd" d="M424.654 255.014C419.821 257.266 413.969 256.294 404.99 255.106C408.077 262.461 418.216 265.019 425.442 262.947C430.824 261.404 435.312 253.875 435.744 248.877C436.162 244.041 436.629 239.888 432.024 236.075C425.458 230.637 416.917 232.952 415.12 235.677C422.333 237.29 429.924 238.828 429.131 248.002C428.965 249.93 427.963 253.472 424.654 255.014Z" fill="#7920B9"/>
<path d="M466.541 345.632C473.36 337.909 485.333 319.021 478.673 305.245C470.348 288.025 457.192 275.255 464.628 263.938" stroke="#78D2EE" stroke-width="0.75" stroke-linecap="round"/>
<path d="M511.722 211.379C502.718 211.036 483.225 208.116 477.281 199.185C469.851 188.022 481.548 157.333 451.447 150.804" stroke="#78D2EE" stroke-width="0.75" stroke-linecap="round"/>
</svg>
