<svg width="1441" height="759" viewBox="0 0 1441 759" fill="none" xmlns="http://www.w3.org/2000/svg">
<g clip-path="url(#clip0_1369_6242)">
<rect width="1440" height="900" transform="matrix(1 0 0 -1 0 904)" fill="#212338"/>
<g filter="url(#filter0_f_1369_6242)">
<path d="M249.2 640.372C334.105 818.561 506.484 911.925 728.71 964.19C1000.73 1028.17 1688.14 1128.66 1819.81 896.338C1910.45 736.398 1688.87 627.743 1505.32 602.85C991.871 533.217 673.574 222.45 426.447 263.322C251.101 292.322 167.14 468.156 249.2 640.372Z" fill="url(#paint0_linear_1369_6242)"/>
</g>
<g filter="url(#filter1_f_1369_6242)">
<circle r="255" transform="matrix(1 0 0 -1 879 345)" fill="#FF29A8"/>
</g>
<g filter="url(#filter2_f_1369_6242)">
<circle r="398.5" transform="matrix(1 0 0 -1 644.5 -123.5)" fill="#FF4473"/>
</g>
<g filter="url(#filter3_f_1369_6242)">
<ellipse rx="632.5" ry="449.5" transform="matrix(1 0 0 -1 1440.5 181.5)" fill="#FF3D00"/>
</g>
<g filter="url(#filter4_f_1369_6242)">
<ellipse rx="574.5" ry="408" transform="matrix(1 0 0 -1 1498.5 34)" fill="#FFBB00"/>
</g>
<g filter="url(#filter5_f_1369_6242)">
<ellipse rx="547.53" ry="216.86" transform="matrix(0.960363 0.278751 0.278751 -0.960363 1158.42 984.2)" fill="#4C1D95"/>
</g>
</g>
<path d="M0 757.539C193.607 770.84 213.986 484.596 509.966 660.125C805.946 835.654 955.936 390.858 1439.9 757.539C1923.87 1124.22 1439.9 1036.92 1439.9 1036.92H0V757.539Z" fill="#FFF4E6"/>
<defs>
<filter id="filter0_f_1369_6242" x="-82.4525" y="-40.3672" width="2223.23" height="1382.07" filterUnits="userSpaceOnUse" color-interpolation-filters="sRGB">
<feFlood flood-opacity="0" result="BackgroundImageFix"/>
<feBlend mode="normal" in="SourceGraphic" in2="BackgroundImageFix" result="shape"/>
<feGaussianBlur stdDeviation="150" result="effect1_foregroundBlur_1369_6242"/>
</filter>
<filter id="filter1_f_1369_6242" x="374" y="-160" width="1010" height="1010" filterUnits="userSpaceOnUse" color-interpolation-filters="sRGB">
<feFlood flood-opacity="0" result="BackgroundImageFix"/>
<feBlend mode="normal" in="SourceGraphic" in2="BackgroundImageFix" result="shape"/>
<feGaussianBlur stdDeviation="125" result="effect1_foregroundBlur_1369_6242"/>
</filter>
<filter id="filter2_f_1369_6242" x="-54" y="-822" width="1397" height="1397" filterUnits="userSpaceOnUse" color-interpolation-filters="sRGB">
<feFlood flood-opacity="0" result="BackgroundImageFix"/>
<feBlend mode="normal" in="SourceGraphic" in2="BackgroundImageFix" result="shape"/>
<feGaussianBlur stdDeviation="150" result="effect1_foregroundBlur_1369_6242"/>
</filter>
<filter id="filter3_f_1369_6242" x="458" y="-618" width="1965" height="1599" filterUnits="userSpaceOnUse" color-interpolation-filters="sRGB">
<feFlood flood-opacity="0" result="BackgroundImageFix"/>
<feBlend mode="normal" in="SourceGraphic" in2="BackgroundImageFix" result="shape"/>
<feGaussianBlur stdDeviation="175" result="effect1_foregroundBlur_1369_6242"/>
</filter>
<filter id="filter4_f_1369_6242" x="624" y="-674" width="1749" height="1416" filterUnits="userSpaceOnUse" color-interpolation-filters="sRGB">
<feFlood flood-opacity="0" result="BackgroundImageFix"/>
<feBlend mode="normal" in="SourceGraphic" in2="BackgroundImageFix" result="shape"/>
<feGaussianBlur stdDeviation="150" result="effect1_foregroundBlur_1369_6242"/>
</filter>
<filter id="filter5_f_1369_6242" x="329.075" y="425.98" width="1658.68" height="1116.44" filterUnits="userSpaceOnUse" color-interpolation-filters="sRGB">
<feFlood flood-opacity="0" result="BackgroundImageFix"/>
<feBlend mode="normal" in="SourceGraphic" in2="BackgroundImageFix" result="shape"/>
<feGaussianBlur stdDeviation="150" result="effect1_foregroundBlur_1369_6242"/>
</filter>
<linearGradient id="paint0_linear_1369_6242" x1="358.126" y1="538.077" x2="1475.32" y2="548.469" gradientUnits="userSpaceOnUse">
<stop offset="0.422952" stop-color="#8900C9"/>
<stop offset="1" stop-color="#FFCCFF"/>
</linearGradient>
<clipPath id="clip0_1369_6242">
<rect width="1440" height="900" fill="white" transform="matrix(1 0 0 -1 0 904)"/>
</clipPath>
</defs>
</svg>
